<svg id="BFP-filled" width="100%" height="100%" viewBox="0 0 699.5 247.8">
<style type="text/css">
	.st0{fill:#007BC1;}
	.st1{fill:#FFFFFF;}
</style>
<path id="XMLID_3_" class="st0" d="M0,92.2c0-3,1-6.4,3-10.2c0.3-0.4,0.6-0.6,1-0.6c0.6,0,1.3,0.5,1.3,1.1c0,0.3-0.1,0.4-0.3,0.6
	c-1.8,3.3-2.6,6.3-2.6,8.8c0,9.7,11.7,14.5,26.1,14.5c18.1,0,40.7-7.6,49.5-22.7c2.3-3.7,3.1-7.1,3.1-10.1c0-12.6-17-18.9-30.2-21.2
	c-9.6,13.4-19.5,26.6-28.7,40.1c-0.1,0.4-0.5,0.6-0.8,0.6c-0.5,0-0.9-0.4-0.9-1l0.1-0.6c7.9-11.8,20.4-29.4,27.6-39.4
	c-2-0.3-3.9-0.5-5.9-0.6c-0.6,0-1-0.6-1-1.1c0-0.6,0.4-1.1,1.1-1.1l7.1,0.4c1.4-3.2,2-5.8,2-8.1c0-11.5-13.5-14.7-13.5-22.2
	c0-0.8,0.1-1.6,0.4-2.5C42.2,6.9,66,0,87.4,0c18.4,0,34.8,5.2,34.8,18.1c0,2.8-0.8,5.9-2.4,9.5C110,48.8,80,51.9,58.8,51.9
	c12.5,3.4,24.7,10.5,24.7,21.9c0,3.3-1,7.1-3.5,11.1c-9.5,15.9-32.3,23.8-51.2,23.8C13,108.7,0,103.2,0,92.2z M117.8,26.7
	c1.5-3,2.1-5.8,2.1-8.3c0-11.6-15.1-16.3-32.3-16.3c-20.5,0-43.9,6.7-47.3,15.5c-0.1,0.5-0.3,1.1-0.3,1.6c0,6.2,13.7,10.1,13.7,22.2
	c0,1.1-0.1,2.4-0.5,3.7c9.5-13.2,18.8-26.5,26.5-38.1c0.3-0.4,0.6-0.5,0.9-0.5c0.6,0,1.1,0.5,1.1,1.1l-0.3,0.6
	c-8.3,12.5-18.5,27-28.7,41.3l5.8,0.1C79.6,49.8,108.6,46.6,117.8,26.7z"/>
<path id="XMLID_6_" class="st0" d="M104.2,78.5c0-11.2,13.5-29.5,16.5-33.4c5.2-6.8,26.3-31,37.3-31c2.5,0,4.3,1.3,4.3,3.4
	c0,10.6-48.4,47.3-53.2,51l-0.1,0.1c-1,2.3-2.5,6.4-2.5,10c0,4,2.4,6.3,7.2,6.3c10.8,0,33-11.2,42.7-17.4c0.4-0.3,0.6-0.4,0.9-0.4
	c0.4,0,0.8,0.3,0.8,0.6c0,0.4-0.3,0.6-0.6,0.9c-10.3,6.8-31.5,18.5-43.6,18.5C107.5,87.2,104.2,83.9,104.2,78.5z M160,17.8
	c0-1.1-1.1-1.4-2.3-1.4c-9.5,0-30.9,24.2-35.3,30c-5.2,6.8-8.9,12.9-11.6,18C123.7,54.4,160,25.2,160,17.8z"/>
<path id="XMLID_9_" class="st0" d="M149.3,86.9c-2-0.6-2.6-2.3-2.6-4c0-2.4,1.1-5.3,2-6.8c2.1-3.5,5.5-7.4,10.3-10.3l0.5-0.1
	c0.6,0,1.1,0.6,1.1,1.1c0,0.4-0.1,0.6-0.5,0.9c-3,1.9-6,4.5-8.2,7.6c-1,1.3-3.1,5-3.1,7.6c0,1.4,0.5,2.3,2.3,2.4h0.3
	c4.3,0,11.7-7.3,13.5-10.2c-2-1.9-2.8-4.2-2.8-6c0-2.5,1.5-4.4,3.4-4.4c0.5,0,0.9,0,1.4,0.3c1.8,0.8,2.5,2.4,2.5,4.2
	s-0.6,3.8-1.6,5.5c1.1,0.5,2.5,0.8,4.2,0.8c7.2,0,18.3-5,22.7-7.8c0.4-0.3,0.5-0.3,0.6-0.3c0.4-0.1,0.9,0.6,0.8,0.8
	c0,0.3-0.1,0.5-0.5,0.8c-4.2,2.6-15.8,8.8-23.9,8.8c-1.9,0-3.7-0.4-5-1.1c-3.3,4.5-10,10.8-15.2,10.8
	C150.6,87.2,149.9,87.2,149.3,86.9z M167.1,69.2c0-1.4-0.6-2.3-1.3-2.4h-0.3c-1,0-1.4,0.9-1.4,2c0,1.4,0.8,3.3,1.8,4.2
	C166.8,71.4,167.1,70.2,167.1,69.2z"/>
<path id="XMLID_12_" class="st0" d="M150.3,142.8c-2.6,0-3.5-1.5-3.5-3.5c0-1.3,0.4-2.6,0.9-3.9c1.9-4.3,6.6-10.6,14.5-18.1
	c9.8-9.5,21.5-17.3,33.5-24.3l15.8-22.1c-5,4-18,14.5-24.3,14.5c-0.9,0-1.5-0.1-2.1-0.5c-1-0.8-1.4-1.6-1.4-2.9
	c0-6.8,14.2-19.9,23.9-19.9c2.4,0,4.4,0.8,5.9,2.5c0.3,0.3,0.4,0.5,0.4,0.8c0,0.6-0.6,1.1-1.1,1.1c-0.4,0-0.6-0.1-0.9-0.4
	c-1.1-1.4-2.6-1.9-4.4-1.9c-8.4,0-21.8,13.2-21.8,17.8c0,0.5,0.3,1,0.8,1.3c0.3,0.1,0.6,0.1,0.9,0.1c6.2,0,26.5-17,30.1-20.2
	c0.3-0.1,0.5-0.3,0.8-0.3c0.6,0,1.1,0.5,1.1,1.1c0,0.3-0.1,0.5-0.4,0.8c-2.5,2.6-13.7,18.6-18.5,25.3c13-7.4,27.7-14.6,39.6-22.7
	c0.3-0.3,0.6-0.3,0.9-0.3s0.4,0,0.5,0.3l0.3,0.4c0,0.4-0.3,0.6-0.6,0.9c-14,9.6-29.2,17.3-43.7,26c-15.9,21.8-35.5,47.1-46.1,48.1
	H150.3z M192.3,97.5c-10.2,6.2-20.2,13.1-28.6,21.2c-6.9,6.8-14.7,16.1-14.7,20.5v0.1c0.1,1.1,0.8,1.3,1.9,1.3
	C159.9,139.6,177.3,117.9,192.3,97.5z"/>
<path id="XMLID_15_" class="st0" d="M195.7,142.8c-2.6,0-3.5-1.5-3.5-3.5c0-1.3,0.4-2.6,0.9-3.9c1.9-4.3,6.6-10.6,14.5-18.1
	c9.8-9.5,21.5-17.3,33.5-24.3l15.8-22.1c-5,4-18,14.5-24.3,14.5c-0.9,0-1.5-0.1-2.1-0.5c-1-0.8-1.4-1.6-1.4-2.9
	c0-6.8,14.2-19.9,23.9-19.9c2.4,0,4.4,0.8,5.9,2.5c0.3,0.3,0.4,0.5,0.4,0.8c0,0.6-0.6,1.1-1.1,1.1c-0.4,0-0.6-0.1-0.9-0.4
	c-1.1-1.4-2.6-1.9-4.4-1.9c-8.4,0-21.8,13.2-21.8,17.8c0,0.5,0.3,1,0.8,1.3c0.3,0.1,0.6,0.1,0.9,0.1c6.2,0,26.5-17,30.1-20.2
	c0.3-0.1,0.5-0.3,0.8-0.3c0.6,0,1.1,0.5,1.1,1.1c0,0.3-0.1,0.5-0.4,0.8c-2.5,2.6-13.7,18.6-18.5,25.3c13-7.4,27.7-14.6,39.6-22.7
	c0.3-0.3,0.6-0.3,0.9-0.3s0.4,0,0.5,0.3l0.3,0.4c0,0.4-0.3,0.6-0.6,0.9c-14,9.6-29.2,17.3-43.7,26c-15.9,21.8-35.5,47.1-46.1,48.1
	H195.7z M237.6,97.5c-10.2,6.2-20.2,13.1-28.6,21.2c-6.9,6.8-14.7,16.1-14.7,20.5v0.1c0.1,1.1,0.8,1.3,1.9,1.3
	C205.2,139.6,222.6,117.9,237.6,97.5z"/>
<path id="XMLID_18_" class="st0" d="M277.6,85.8c-0.8-0.8-1.1-1.9-1.1-3c0-5.7,7.8-14.5,10.8-17.6c0.3-0.3,0.5-0.4,0.8-0.4
	c0.6,0,1.3,0.6,1.3,1.3c0,0.3-0.1,0.5-0.4,0.8c-2.6,2.5-10.3,11.6-10.3,15.9c0,0.6,0.3,1.3,0.6,1.6c0.5,0.4,1.3,0.6,2.1,0.6
	c8.7,0,35.9-14.7,40.7-17.5c0.4-0.1,0.6-0.3,0.8-0.3c0.3,0,0.5,0.1,0.5,0.3l0.3,0.5c0,0.3-0.3,0.5-0.6,0.8
	c-1.3,0.9-30.5,18.3-41.7,18.3C279.6,86.9,278.3,86.6,277.6,85.8z M294.5,59.6v-0.5c0.9-2.9,3.9-6.6,6.9-6.6h0.3c0.6,0,1,0.6,1,1.1
	c0,0.5-0.4,1.1-1.1,1.1h-0.4c-1.8,0-4.5,2.9-5.3,4.7c-0.3,0.6-0.6,0.9-0.9,0.9C294.6,60.4,294.5,60.1,294.5,59.6z"/>
<path id="XMLID_21_" class="st0" d="M308.7,85.9l0.3-0.6c1.9-2.8,11.7-16.8,14.9-19.9c0.1-0.3,0.4-0.4,0.6-0.4
	c0.6,0,1.3,0.6,1.3,1.3c0,0.3-0.1,0.5-0.4,0.8c-1.6,1.6-6.2,7.8-8.4,11c6.2-5.5,14.9-12.2,19.8-12.2h0.5c3.5,0.4,3.8,4.5,3.8,8.6
	v2.3c0,2.6,0.1,4.9,1.4,5.5c0.3,0.3,0.8,0.3,1.4,0.3c6.4,0,26.3-12.7,29.7-15c0.4-0.3,0.5-0.3,0.6-0.3c0.4,0,0.5,0.1,0.8,0.4
	c0,0,0.4,0.6-0.4,1.1c-4.5,3-23.3,15.9-31.1,15.9c-0.9,0-1.6-0.1-2.1-0.5c-4.5-2.8-0.4-15.6-4.3-16h-0.5c-6.6,0-21.8,15.1-25.7,18.8
	c-0.3,0.3-0.5,0.3-0.8,0.3C309.3,87.1,308.7,86.6,308.7,85.9z"/>
<path id="XMLID_23_" class="st0" d="M329.5,142.8c-2.6,0-3.5-1.5-3.5-3.5c0-1.3,0.4-2.6,0.9-3.9c1.9-4.3,6.6-10.6,14.5-18.1
	c9.8-9.5,21.5-17.3,33.5-24.3l15.8-22.1c-5,4-18,14.5-24.3,14.5c-0.9,0-1.5-0.1-2.1-0.5c-1-0.8-1.4-1.6-1.4-2.9
	c0-6.8,14.2-19.9,23.9-19.9c2.4,0,4.4,0.8,5.9,2.5c0.3,0.3,0.4,0.5,0.4,0.8c0,0.6-0.6,1.1-1.1,1.1c-0.4,0-0.6-0.1-0.9-0.4
	c-1.1-1.4-2.6-1.9-4.4-1.9c-8.4,0-21.8,13.2-21.8,17.8c0,0.5,0.3,1,0.8,1.3c0.3,0.1,0.6,0.1,0.9,0.1c6.2,0,26.5-17,30.1-20.2
	c0.3-0.1,0.5-0.3,0.8-0.3c0.6,0,1.1,0.5,1.1,1.1c0,0.3-0.1,0.5-0.4,0.8c-2.5,2.6-13.7,18.6-18.5,25.3c13-7.4,27.7-14.6,39.6-22.7
	c0.3-0.3,0.6-0.3,0.9-0.3s0.4,0,0.5,0.3l0.3,0.4c0,0.4-0.3,0.6-0.6,0.9c-14,9.6-29.2,17.3-43.7,26c-15.9,21.8-35.5,47.1-46.1,48.1
	H329.5z M371.4,97.5c-10.2,6.2-20.2,13.1-28.6,21.2c-6.9,6.8-14.7,16.1-14.7,20.5v0.1c0.1,1.1,0.8,1.3,1.9,1.3
	C339.1,139.6,356.4,117.9,371.4,97.5z"/>
<path id="XMLID_26_" class="st0" d="M457.1,105.3c0-0.3,0.1-0.5,0.3-0.8c4.8-6.3,17.9-25.7,31.9-46c0.9-1.5,1.5-3,2-4.4
	c-6.4,0-13.4,1-17.4,1.4h-0.3c-0.6,0-0.9-0.4-0.9-0.8c0-0.5,0.3-0.9,0.9-1c4.3-0.8,10.8-1.4,18.4-1.9c0.4-1.6,0.6-3.2,0.6-4.7
	c0-15.9-21.5-23.8-22.7-30.2v-0.5c0-8.9,44.6-10.8,78.4-10.8c17.6,0,32.4,0.5,36.2,0.9c0.8,0,1,0.6,1,1.1s-0.4,1.1-1,1.1h-0.1
	c-3.3-0.4-16.3-0.6-32.3-0.6c-33.3,0-79.9,1.5-79.9,8.3v0.4c1.5,5.8,22.7,13.5,22.7,30.1c0,1.3-0.1,2.5-0.4,3.9l26.8-38.6
	c0.3-0.3,0.5-0.5,0.9-0.5c0.6,0,1.1,0.6,1.1,1.3c0,0.3,0,0.4-0.1,0.6c-7.1,9.8-16.8,23.8-26.5,37.9c17.1-0.9,39.3-1.3,43.3-1.3
	c0.8,0,1,0.5,1,1.1c0,0.5-0.3,1.1-1,1.1c-4,0-28.5,0.4-45,1.4l-36.3,51.7c-0.3,0.4-0.5,0.5-0.9,0.5S457.1,105.8,457.1,105.3z"/>
<path id="XMLID_28_" class="st0" d="M548.2,87.1c-1.3-0.8-1.8-2-1.8-3.4c0-4.8,6.2-12.2,6.2-15.4c0-0.4-0.1-0.8-0.3-1l-2.5-2.9
	c-1.6,1.3-4,2.4-6.6,4.2c-1.4,0.6-1.4-0.5-1.4-0.5c0-0.3,0.3-0.6,0.6-0.9c2.6-1.8,4.5-3.4,6.3-4.8V62c0-2.4,4-5.2,5.7-5.2
	c0.9,0,1.3,0.5,1.3,1c0,0.6-0.5,1.5-1,2.1c-0.6,0.8-1.6,1.8-3.2,3l2.6,3c0.4,0.5,0.5,1.3,0.5,2c0,4.4-6.2,11.8-6.2,15.5
	c0,0.8,0.3,1.3,0.9,1.6c0.4,0.3,0.9,0.4,1.4,0.4c7.3,0,31.1-15.4,35.5-18.1c0.3-0.1,0.5-0.3,0.8-0.3s0.5,0,0.6,0.3
	c0.3,0.3,0.3,0.9-0.4,1.3c-5.5,3.7-28.1,18.9-36.9,18.9C549.6,87.6,548.8,87.4,548.2,87.1z"/>
<path id="XMLID_30_" class="st0" d="M578.8,86.9c-2-0.6-2.6-2.3-2.6-4c0-2.4,1.1-5.3,2-6.8c2.1-3.5,5.5-7.4,10.3-10.3l0.5-0.1
	c0.6,0,1.1,0.6,1.1,1.1c0,0.4-0.1,0.6-0.5,0.9c-3,1.9-6,4.5-8.2,7.6c-1,1.3-3.2,5-3.2,7.6c0,1.4,0.5,2.3,2.3,2.4h0.3
	c4.3,0,11.7-7.3,13.5-10.2c-2-1.9-2.8-4.2-2.8-6c0-2.5,1.5-4.4,3.4-4.4c0.5,0,0.9,0,1.4,0.3c1.8,0.8,2.5,2.4,2.5,4.2
	s-0.6,3.8-1.6,5.5c1.1,0.5,2.5,0.8,4.2,0.8c7.2,0,18.3-5,22.7-7.8c0.4-0.3,0.5-0.3,0.6-0.3c0.4-0.1,0.9,0.6,0.8,0.8
	c0,0.3-0.1,0.5-0.5,0.8c-4.2,2.6-15.8,8.8-23.9,8.8c-1.9,0-3.7-0.4-5-1.1c-3.3,4.5-10,10.8-15.2,10.8
	C580.1,87.2,579.5,87.2,578.8,86.9z M596.6,69.2c0-1.4-0.6-2.3-1.3-2.4h-0.3c-1,0-1.4,0.9-1.4,2c0,1.4,0.8,3.3,1.8,4.2
	C596.3,71.4,596.6,70.2,596.6,69.2z"/>
<path id="XMLID_33_" class="st0" d="M609.2,86.2c0-0.3,0.1-0.5,0.4-0.8c4.2-5.2,12.1-16.1,15.6-19c0.3-0.3,0.5-0.4,0.8-0.4
	c0.6,0,1,0.5,1,1c0,0.3-0.1,0.6-0.5,0.9c-1.5,1.4-4,4.3-7.3,8.6c3-2.9,17.8-12.2,23.4-12.2c1.6,0,2.4,0.8,2.3,1.8
	c0,3.1-7.2,12.1-8.8,14.4c2.8-2,17.3-13.6,23.1-13.6c1.4,0,2.3,0.6,2.3,1.9c0,3.8-7.6,12-7.6,14.4c0,0.5,0.3,0.6,1,0.6
	c5.8,0,34.5-16.3,34.7-16.3c0.3-0.3,0.5-0.3,0.8-0.3c0.5,0,0.5,0.1,0.8,0.6c0,0.3-0.3,0.6-0.8,0.9c-1.3,0.8-28.6,17.3-36.3,17.3
	c-1.8,0-2.4-1-2.4-2.3c0-4.2,7.4-12.5,7.4-14.5c-0.1-0.4-0.1-0.5-0.6-0.5c-4.2,0-24.3,15.5-26.2,17.4c-0.4,0.3-0.6,0.4-0.9,0.4
	c-0.5,0-1-0.4-1-1l0.3-0.6c2-3.2,12.1-16.8,12.1-18.3c-0.1-0.3-0.3-0.4-0.6-0.4c-1,0-3.4,0.9-4.4,1.4c-6.8,2.6-17.9,9.8-26.3,19
	c-0.4,0.4-0.8,0.5-1.1,0.5C609.6,87.1,609.2,86.7,609.2,86.2z"/>
<path id="XMLID_35_" class="st1" d="M40.7,205.1v40.9H5.7V133.4h48.1c12,0,21.1,1.4,27.4,4.1c6.2,2.8,11.2,7,14.9,12.6
	c3.7,5.7,5.5,12,5.5,19.1c0,10.7-3.7,19.4-11.2,26c-7.5,6.6-17.5,9.9-30,9.9H40.7z M40.2,181h11.6c10.2,0,15.3-3.7,15.3-11.2
	c0-7-4.7-10.6-14.1-10.6H40.2V181z"/>
<path id="XMLID_38_" class="st1" d="M196.1,246.1h-31.4c-0.8-3.6-1.2-7.5-1.2-11.7c-5.9,9-14.9,13.5-27,13.5
	c-9.9,0-17.3-2.5-22.2-7.6c-4.9-5.1-7.4-10.9-7.4-17.4c0-8.9,4-16,12.1-21.5c8.1-5.5,22.3-8.8,42.9-9.9v-1.9c0-3.7-0.8-6.1-2.5-7.3
	c-1.7-1.2-4.1-1.8-7.4-1.8c-7.6,0-11.8,3.1-12.7,9.2l-30-2.8c4.3-17.5,18.9-26.3,43.8-26.3c6.8,0,13,0.7,18.6,2
	c5.7,1.3,10.1,3.5,13.5,6.3s5.5,5.9,6.6,9.1c1.1,3.2,1.7,9.3,1.7,18.4v33.5C193.6,236.1,194.4,241.5,196.1,246.1z M162,206.8
	c-14,1.5-21,6-21,13.5c0,5.1,2.8,7.6,8.3,7.6c3.5,0,6.5-1,9-3.1c2.5-2.1,3.7-6.7,3.7-13.9V206.8z"/>
<path id="XMLID_41_" class="st1" d="M242.2,246.1h-31.5v-83.9H238v17.3c3.1-12.6,10.4-18.9,21.9-18.9c1.2,0,2.8,0.1,4.8,0.3v29.3
	c-2.3-0.5-4.4-0.8-6.2-0.8c-10.9,0-16.3,6.1-16.3,18.2V246.1z"/>
<path id="XMLID_43_" class="st1" d="M359.7,246.1h-31.4c-0.8-3.6-1.2-7.5-1.2-11.7c-5.9,9-14.9,13.5-27,13.5
	c-9.9,0-17.3-2.5-22.2-7.6c-4.9-5.1-7.4-10.9-7.4-17.4c0-8.9,4-16,12.1-21.5c8.1-5.5,22.3-8.8,42.9-9.9v-1.9c0-3.7-0.8-6.1-2.5-7.3
	c-1.7-1.2-4.1-1.8-7.4-1.8c-7.6,0-11.8,3.1-12.7,9.2l-30-2.8c4.3-17.5,18.9-26.3,43.8-26.3c6.8,0,13,0.7,18.6,2
	c5.7,1.3,10.1,3.5,13.5,6.3s5.5,5.9,6.6,9.1c1.1,3.2,1.7,9.3,1.7,18.4v33.5C357.1,236.1,358,241.5,359.7,246.1z M325.5,206.8
	c-14,1.5-21,6-21,13.5c0,5.1,2.8,7.6,8.3,7.6c3.5,0,6.5-1,9-3.1c2.5-2.1,3.7-6.7,3.7-13.9V206.8z"/>
<path id="XMLID_46_" class="st1" d="M456.1,246.1h-30.9v-11.1c-4.6,8.6-12.1,12.9-22.6,12.9c-9.7,0-17.5-3.8-23.6-11.3
	c-6-7.6-9-18.6-9-33c0-13.5,3-24.2,9.1-32.1c6.1-7.9,14.1-11.9,24-11.9c8.3,0,15.2,3.2,20.5,9.5v-35.6h32.4V246.1z M423.7,192.1
	c0-7.5-3.1-11.3-9.3-11.3c-4.3,0-7.2,2.4-8.5,7.2s-2,10.6-2,17.6c0,13.6,3.5,20.4,10.4,20.4c2.6,0,4.9-1.1,6.7-3.2
	c1.8-2.1,2.8-5.4,2.8-9.8V192.1z"/>
<path id="XMLID_49_" class="st1" d="M506.4,129.9v26.1h-32.9v-26.1H506.4z M506.4,162.1v83.9h-32.9v-83.9H506.4z"/>
<path id="XMLID_52_" class="st1" d="M516.3,222.3l26-3.5c1.5,6.1,7.4,9.1,17.7,9.1c8.5,0,12.8-1.7,12.8-5c0-1.4-0.8-2.5-2.5-3.3
	c-1.7-0.8-5.6-1.6-11.7-2.4c-17.1-2.4-27.7-6.1-31.9-11.1c-4.2-5-6.4-10.6-6.4-16.8c0-8.6,3.6-15.5,10.7-20.8c7.2-5.3,16.5-8,28.1-8
	c20.4,0,33.3,7.3,38.9,22l-24.9,4.7c-2.3-5-7.2-7.4-14.6-7.4c-3.5,0-6.1,0.5-7.9,1.4c-1.7,1-2.6,1.9-2.6,2.8c0,2.8,2.6,4.4,7.9,5
	c13.8,1.5,23.1,3.1,28,4.7c4.9,1.6,9.1,4.5,12.5,8.8c3.5,4.2,5.2,9.4,5.2,15.4c0,9.2-3.8,16.5-11.5,21.9c-7.7,5.4-18.3,8.1-31.7,8.1
	C535.7,247.8,521.7,239.3,516.3,222.3z"/>
<path id="XMLID_54_" class="st1" d="M668.7,215.9l30.7,2.1c-1.8,8.3-6.4,15.3-13.9,21.1c-7.5,5.8-17.5,8.7-30.2,8.7
	c-14.1,0-25.4-4.1-33.8-12.3c-8.4-8.2-12.6-18.3-12.6-30.4c0-12.5,4.2-23.1,12.5-31.8c8.3-8.6,19.4-13,33.3-13
	c13.4,0,24.3,4.1,32.6,12.2c8.3,8.1,12.4,19.2,12.4,33.3c0,1.2,0,2.8-0.1,4.8h-56.2c0.1,5.3,1,9.2,2.8,11.8
	c1.8,2.6,5.1,3.8,10.1,3.8C663.2,226.3,667.4,222.8,668.7,215.9z M666.5,194.2c-0.1-5.7-1.2-9.5-3.4-11.4c-2.2-2-5-2.9-8.3-2.9
	c-7.8,0-11.7,4.8-11.7,14.4H666.5z"/>
</svg>
