<?xml version="1.0" encoding="utf-8"?>
<!-- Generator: Adobe Illustrator 19.0.0, SVG Export Plug-In . SVG Version: 6.00 Build 0)  -->
<svg version="1.1" id="Layer_1" xmlns="http://www.w3.org/2000/svg" xmlns:xlink="http://www.w3.org/1999/xlink" x="0px" y="0px"
	 viewBox="0 0 1089.7 191.8" style="enable-background:new 0 0 1089.7 191.8;" xml:space="preserve">
<style type="text/css">
	.st0{fill:#FFFFFF;}
</style>
<path id="XMLID_31_" class="st0" d="M3.5,117c-2.7-0.8-3.5-3-3.5-5.4c0-3.2,1.5-7.1,2.7-9.1c2.9-4.7,7.4-10,13.9-13.9l0.7-0.2
	c0.8,0,1.5,0.8,1.5,1.5c0,0.5-0.2,0.8-0.7,1.2c-4.1,2.5-8.1,6.1-11,10.1c-1.4,1.7-4.2,6.8-4.2,10.1c0,1.9,0.7,3,3,3.2h0.3
	c5.7,0,15.7-9.8,18.1-13.7c-2.7-2.5-3.7-5.6-3.7-8.1c0-3.4,2-5.9,4.6-5.9c0.7,0,1.2,0,1.9,0.3c2.4,1,3.4,3.2,3.4,5.6
	c0,2.4-0.8,5.1-2.2,7.4c1.5,0.7,3.4,1,5.6,1c9.6,0,24.5-6.8,30.4-10.5c0.5-0.3,0.7-0.3,0.8-0.3c0.5-0.2,1.2,0.8,1,1
	c0,0.3-0.2,0.7-0.7,1c-5.6,3.5-21.1,11.8-32.1,11.8c-2.5,0-4.9-0.5-6.8-1.5c-4.4,6.1-13.4,14.5-20.4,14.5
	C5.2,117.3,4.4,117.3,3.5,117z M27.4,93.1c0-1.9-0.8-3-1.7-3.2h-0.3c-1.4,0-1.9,1.2-1.9,2.7c0,1.9,1,4.4,2.4,5.6
	C27,96.2,27.4,94.5,27.4,93.1z"/>
<path id="XMLID_34_" class="st0" d="M9.5,185.1c-1.5-0.8-2.2-2.4-2.2-4.6c0-15.9,35.5-62.2,40.4-68.8v-0.3c0-0.7-0.5-2-0.5-3.2
	c0-0.7,0.2-1.4,1.2-1.5h0.3c0.7,0,1.4,0.3,2.4,0.7c6.4-8.5,68.6-88.2,87-88.2c1.5,0,2.7,0.5,3.5,1.5c0.3,0.5,0.7,1.4,0.7,2.2
	c0,14.5-66.9,63-76.2,69.8c-1.7,2-6.1,7.8-11.8,15.4c1.7,0.2,3.7,0.3,5.6,0.3c17.9,0,43.3-9,56.4-17.6c0.3-0.3,0.7-0.3,0.8-0.3
	c0.3,0,0.7,0,0.8,0.3l0.2,0.5c0,0.3-0.3,0.8-0.8,1.2c-13.4,9-39.4,18.9-58,18.9c-2.5,0-4.9-0.3-7.1-0.7l-1.4,1.9
	c0,1.7,0.2,3.5,0.2,5.2c0,15.9-5.9,32.6-13.4,45.6c-4.2,6.8-15.2,22.6-24.5,22.6C11.8,186.1,10.6,185.7,9.5,185.1z M35,161.9
	c7.1-12.2,13-28.2,13-43.3v-2.4c-4.6,5.9-38,51.4-38,63.7c0,1.4,0.3,2.2,1.2,2.7c0.5,0.5,1.4,0.7,2.2,0.7
	C20.6,183.4,32.6,166,35,161.9z M139.3,23.5c0-0.5,0-0.8-0.3-1.2c-0.5-0.3-1-0.5-1.5-0.5c-11.3,0-57.3,53.9-63.4,61.3
	C79.9,78.6,139.3,32.8,139.3,23.5z"/>
<path id="XMLID_38_" class="st0" d="M141.5,140.8c0-0.5,0.2-0.8,0.7-1.2c5.7-3.4,26.2-4.7,48.5-5.2C199.4,118.3,214,96,229.5,74
	c17.1-24.3,35.3-48.3,48.2-63.4c0.5-0.3,0.8-0.5,1.2-0.5s0.8,0.2,1,0.3c0.5,0.3,0.5,0.7,0.5,1.2c0,0.3,0,0.7-0.3,1
	c-13,14.9-31.1,38.9-48.2,63C217,97,202.8,118.5,194,134.4l18.9-0.2c18.8,0,35.8,0.3,44.1,0.3c1.2,0,1.7,0.7,1.7,1.2
	c0,0.7-0.5,1.2-1.5,1.2l-38.2-0.2c-30.6,0-67.8,0.7-75.4,5.2l-0.7,0.2C142.1,142.1,141.5,141.5,141.5,140.8z M224.3,8.3
	c0-0.5,0.2-1,0.8-1.2C241.7,0.7,291.5,0,328.7,0h27.5c1,0,1.5,0.5,1.5,1.2c0,0.5-0.5,1.2-1.5,1.2H340c-36.7,0-95.8,0.5-113.7,7.4
	l-0.5,0.2C224.9,10,224.3,9.1,224.3,8.3z"/>
<path id="XMLID_41_" class="st0" d="M229.7,114.1v-0.3c0-2,0.8-2.9,1.7-2.9c0.3,0,0.7,0.2,1,0.5c2.7,2.2,6.3,3.2,10.3,3.2h1.7
	c6.1-9.8,6.9-30.6,20.3-31.6h0.2c1,0,1.5,0.7,1.5,1.5c0,0.7-0.5,1.5-1.5,1.5c-10,0.8-11.8,18.3-16.9,28.2
	c15.7-2.5,36.7-15.2,49.5-23.5l0.8-0.3c0.3,0,0.7,0.2,0.8,0.3s0.3,0.3,0.3,0.7s-0.2,0.7-0.8,1c-13.5,9-35.8,23.3-52.6,25
	c-2.2,3-5.1,4.2-7.8,4.2C233.9,121.7,230,118.5,229.7,114.1z M241.8,117.6c-3.2-0.2-6.3-0.8-8.8-2.2c0.8,2,3.2,3.4,5.4,3.4
	C239.6,118.8,240.8,118.5,241.8,117.6z"/>
<path id="XMLID_44_" class="st0" d="M293.5,105.6c0-15,18.1-39.5,22.1-44.8c6.9-9.1,35.3-41.6,50-41.6c3.4,0,5.7,1.7,5.7,4.6
	c0,14.2-64.9,63.4-71.3,68.4l-0.2,0.2c-1.4,3-3.4,8.6-3.4,13.4c0,5.4,3.2,8.5,9.6,8.5c14.5,0,44.3-15,57.3-23.3
	c0.5-0.3,0.8-0.5,1.2-0.5c0.5,0,1,0.3,1,0.8s-0.3,0.8-0.8,1.2c-13.9,9.1-42.3,24.8-58.5,24.8C297.9,117.3,293.5,112.9,293.5,105.6z
	 M368.4,24.2c0-1.5-1.5-1.9-3-1.9c-12.7,0-41.4,32.4-47.3,40.2c-6.9,9.1-12,17.2-15.5,24.2C319.7,73.3,368.4,34.1,368.4,24.2z"/>
<path id="XMLID_47_" class="st0" d="M379.9,110.4c0-3.9,2.7-9,6.3-14.4c-6.8,5.6-23.3,18.9-31.8,18.9c-3.2,0-5.2-2.2-5.2-5.1
	c0-8.5,14.9-23,26.4-23c3,0,6.1,1.2,8.3,3.7l0.3,1c0,0.8-0.7,1.5-1.5,1.5c-0.3,0-0.8-0.2-1.2-0.7c-1.7-1.9-3.9-2.7-6.3-2.7
	c-9.6,0-23.2,13.9-23.2,19.9c0,1.4,1.2,2.5,2.5,2.5c7.8,0,30.9-19.3,38-25.4c0.3-0.2,0.7-0.3,1-0.3c0.7,0,1.5,0.8,1.5,1.5l-0.3,0.8
	c-5.9,8.5-12,16.6-12,21.1c0,1.9,1,2.9,2.5,2.9c7.8,0,33.1-16.7,40.9-22.1c0.5-0.3,0.8-0.3,1.2-0.3c0.2,0,0.8,0.5,0.8,1
	c0,0.3-0.2,0.7-0.5,1c-7.9,5.6-33.1,22.8-43.3,22.8C381.4,115.3,379.9,113.2,379.9,110.4z"/>
<path id="XMLID_49_" class="st0" d="M408.3,115.6l0.3-0.8c2.5-3.7,15.7-22.5,19.9-26.7c0.2-0.3,0.5-0.5,0.8-0.5
	c0.8,0,1.7,0.8,1.7,1.7c0,0.3-0.2,0.7-0.5,1c-2.2,2.2-8.3,10.5-11.3,14.7c8.3-7.4,19.9-16.4,26.5-16.4h0.7c4.7,0.5,5.1,6.1,5.1,11.5
	v3c0,3.5,0.2,6.6,1.9,7.4c0.3,0.3,1,0.3,1.9,0.3c8.6,0,35.3-17.1,39.9-20.1c0.5-0.3,0.7-0.3,0.8-0.3c0.5,0,0.7,0.2,1,0.5
	c0,0,0.5,0.8-0.5,1.5c-6.1,4.1-31.3,21.3-41.7,21.3c-1.2,0-2.2-0.2-2.9-0.7c-6.1-3.7-0.5-21-5.7-21.5h-0.7
	c-8.8,0-29.2,20.3-34.5,25.2c-0.3,0.3-0.7,0.3-1,0.3C409.1,117.1,408.3,116.4,408.3,115.6z"/>
<path id="XMLID_51_" class="st0" d="M484.7,115.3c-2.2-1.2-3.2-2.9-3.2-5.1c0-9.6,19.8-27,29.9-27c3,0,5.2,1.7,5.6,5.7v0.2
	c0,0.8-0.8,1.4-1.7,1.4c-0.7,0-1.4-0.3-1.4-1.4c-0.2-2.2-1.4-3-3.2-3c-7.4,0-26.4,16.7-26.4,24c0,1,0.5,2,1.7,2.5
	c0.5,0.3,1,0.3,1.9,0.3c4.7,0,13.7-5.4,24.5-13.5c6.4-17.9,57.3-81.3,73-81.3c0.7,0,1.4,0.2,2,0.5c1,0.7,1.5,1.7,1.5,3
	c0,8.8-21.3,30.8-24.7,34.5c-14.5,15.4-33.3,32.6-49,44.4c-0.2,0-1.4,2.7-1.4,5.2c0,2,0.7,3.7,2.7,4.4c0.8,0.2,1.9,0.3,2.9,0.3
	c12.5,0,38.5-14.5,47-19.8c0.3-0.3,0.7-0.3,1-0.3s0.7,0,0.8,0.3l0.2,0.5c0,0.5-0.2,0.8-0.7,1.2c-8.3,5.9-36.3,21-49.3,21
	c-1.4,0-2.7-0.2-3.5-0.5c-2.5-0.8-3.9-2.9-3.9-6.3c0-1,0-2,0.3-3.2c-10.5,7.6-19.3,12.3-24.3,12.3
	C486.2,115.8,485.4,115.6,484.7,115.3z M561.6,54.6c2-2.2,24.7-26.5,24.7-32.3c0-0.5-0.2-0.8-0.3-1c-0.5-0.3-1-0.3-1.5-0.3
	c-12.2,0-59.8,60-67.1,74.7C530.1,85.3,547.4,69.6,561.6,54.6z"/>
<path id="XMLID_54_" class="st0" d="M608.7,147.7l0.2-0.7c9.5-18.9,12.2-32.3,12.2-41.9c0-7.1-1.5-12.2-2.5-16.2
	c-0.5-2-1.4-4.9-1.4-7.3c0-0.5,0-1.2,0.2-1.7c2.4-7.3,21.6-9.8,45.1-10.3c19.6-25.4,39.9-48.8,57.6-65.9c0.3-0.3,0.7-0.5,1-0.5
	c0.8,0,1.5,0.7,1.5,1.5c0,0.3-0.2,0.7-0.5,1c-17.1,16.4-36.7,39-55.8,63.9h3.5c15.5,0,35.5,1,50.4,2c16.1-24.5,35.8-47.8,55.6-69.1
	c0.3-0.3,0.7-0.5,1-0.5c0.7,0,1.5,0.8,1.5,1.5c0,0.3-0.2,0.7-0.5,1c-23.3,25.2-41.2,48-54.1,67.4c8.6,0.7,15,1.5,17.4,2.2
	c0.7,0.2,1.2,0.8,1.2,1.5c0,0.7-0.5,1.4-1.5,1.4l-0.7-0.2c-3-0.7-9.8-1.4-18.3-2c-7.4,11.3-25,40.6-25,56.6c0,2.4,0.3,4.4,1.2,6.1
	l0.2,0.8c0,0.7-0.5,1.2-1,1.2s-1-0.3-1.4-1c-1-2-1.5-4.6-1.5-7.3c0-17.1,16.6-45,24.2-56.8c-15.2-1-34.8-2-50.9-2H664
	c-18.6,24.3-36.8,50.7-52.6,76.1c-0.3,0.5-0.7,0.8-1.2,0.8C609.6,149.4,608.7,148.7,608.7,147.7z M660.3,72.7
	c-7.1,0.2-37.2-0.2-40.1,8.1l-0.2,1.4c0,4.2,4.1,10.8,4.1,23c0,6.8-1.4,15.4-5.1,26C631.9,111.4,645.9,91.4,660.3,72.7z"/>
<path id="XMLID_68_" class="st0" d="M727,117c-2.7-0.8-3.5-3-3.5-5.4c0-3.2,1.5-7.1,2.7-9.1c2.9-4.7,7.4-10,13.9-13.9l0.7-0.2
	c0.8,0,1.5,0.8,1.5,1.5c0,0.5-0.2,0.8-0.7,1.2c-4.1,2.5-8.1,6.1-11,10.1c-1.4,1.7-4.2,6.8-4.2,10.1c0,1.9,0.7,3,3,3.2h0.3
	c5.7,0,15.7-9.8,18.1-13.7c-2.7-2.5-3.7-5.6-3.7-8.1c0-3.4,2-5.9,4.6-5.9c0.7,0,1.2,0,1.9,0.3c2.4,1,3.4,3.2,3.4,5.6
	c0,2.4-0.8,5.1-2.2,7.4c1.5,0.7,3.4,1,5.6,1c9.6,0,24.5-6.8,30.4-10.5c0.5-0.3,0.7-0.3,0.8-0.3c0.5-0.2,1.2,0.8,1,1
	c0,0.3-0.2,0.7-0.7,1c-5.6,3.5-21.1,11.8-32.1,11.8c-2.5,0-4.9-0.5-6.8-1.5c-4.4,6.1-13.4,14.5-20.5,14.5
	C728.7,117.3,727.9,117.3,727,117z M750.9,93.1c0-1.9-0.8-3-1.7-3.2h-0.3c-1.4,0-1.9,1.2-1.9,2.7c0,1.9,1,4.4,2.4,5.6
	C750.5,96.2,750.9,94.5,750.9,93.1z"/>
<path id="XMLID_71_" class="st0" d="M729.4,182.5l0.3-0.8c1.7-3.2,13.9-22.8,14.9-24.3c17.7-28.9,36.7-59.3,46.3-70.3
	c0.2-0.3,0.5-0.5,0.8-0.5c0.8,0,1.7,1,1.7,1.9c0,0.3,0,0.5-0.2,0.8c-4.2,4.7-10.1,13.2-16.9,23.5c9.5-11.7,23.7-27.5,33.8-27.5
	c1.5,0,2.9,0.3,4.2,1c1.9,1,2.7,2.9,2.7,4.9c0,6.3-7.6,15.9-10.6,18.6c14.4-4.6,29.1-10.6,41.7-18.9c0.5-0.3,0.5-0.3,0.7-0.3
	c0.3,0,0.5,0.2,0.8,0.3l0.3,0.7c0,0.3-0.3,0.7-0.7,1c-17.2,11.3-35.3,18.9-54.9,23.7h-0.3c-1,0-1.7-0.8-1.7-1.7c0-0.5,0.2-1,1-1.2
	c14-3.9,20.5-16.9,20.5-22.3c0-1.2-0.3-1.9-0.8-2.2c-1-0.5-1.9-0.7-2.9-0.7c-17.7,0-59.5,65.4-66.9,77.6l-10.8,17.7
	c-0.3,0.3-0.7,0.5-1.2,0.5C730.4,183.9,729.4,183.4,729.4,182.5z"/>
<path id="XMLID_73_" class="st0" d="M789.5,182.5l0.3-0.8c1.7-3.2,13.9-22.8,14.9-24.3c17.7-28.9,36.7-59.3,46.3-70.3
	c0.2-0.3,0.5-0.5,0.8-0.5c0.8,0,1.7,1,1.7,1.9c0,0.3,0,0.5-0.2,0.8c-4.2,4.7-10.1,13.2-16.9,23.5c9.5-11.7,23.7-27.5,33.8-27.5
	c1.5,0,2.9,0.3,4.2,1c1.9,1,2.7,2.9,2.7,4.9c0,6.3-7.6,15.9-10.6,18.6c14.4-4.6,29.1-10.6,41.7-18.9c0.5-0.3,0.5-0.3,0.7-0.3
	c0.3,0,0.5,0.2,0.8,0.3l0.3,0.7c0,0.3-0.3,0.7-0.7,1c-17.2,11.3-35.3,18.9-54.9,23.7h-0.3c-1,0-1.7-0.8-1.7-1.7c0-0.5,0.2-1,1-1.2
	c14-3.9,20.5-16.9,20.5-22.3c0-1.2-0.3-1.9-0.8-2.2c-1-0.5-1.9-0.7-2.9-0.7c-17.7,0-59.5,65.4-66.9,77.6l-10.8,17.7
	c-0.3,0.3-0.7,0.5-1.2,0.5C790.6,183.9,789.5,183.4,789.5,182.5z"/>
<path id="XMLID_75_" class="st0" d="M897.7,115.4c-1-1-1.5-2.5-1.5-4.1c0-7.6,10.5-19.4,14.5-23.7c0.3-0.3,0.7-0.5,1-0.5
	c0.8,0,1.7,0.8,1.7,1.7c0,0.3-0.2,0.7-0.5,1c-3.5,3.4-13.9,15.5-13.9,21.3c0,0.8,0.3,1.7,0.8,2.2c0.7,0.5,1.7,0.8,2.9,0.8
	c11.7,0,48.2-19.8,54.6-23.5c0.5-0.2,0.8-0.3,1-0.3c0.3,0,0.7,0.2,0.7,0.3l0.3,0.7c0,0.3-0.3,0.7-0.8,1
	c-1.7,1.2-40.9,24.5-55.9,24.5C900.4,117,898.7,116.4,897.7,115.4z M920.4,80.3v-0.7c1.2-3.9,5.2-8.8,9.3-8.8h0.3
	c0.8,0,1.4,0.8,1.4,1.5c0,0.7-0.5,1.5-1.5,1.5h-0.5c-2.4,0-6.1,3.9-7.1,6.3c-0.3,0.8-0.8,1.2-1.2,1.2
	C920.5,81.3,920.4,81,920.4,80.3z"/>
<path id="XMLID_78_" class="st0" d="M939.5,115.6l0.3-0.8c2.5-3.7,15.7-22.5,19.9-26.7c0.2-0.3,0.5-0.5,0.8-0.5
	c0.8,0,1.7,0.8,1.7,1.7c0,0.3-0.2,0.7-0.5,1c-2.2,2.2-8.3,10.5-11.3,14.7c8.3-7.4,19.9-16.4,26.5-16.4h0.7c4.7,0.5,5.1,6.1,5.1,11.5
	v3c0,3.5,0.2,6.6,1.9,7.4c0.3,0.3,1,0.3,1.9,0.3c8.6,0,35.3-17.1,39.9-20.1c0.5-0.3,0.7-0.3,0.8-0.3c0.5,0,0.7,0.2,1,0.5
	c0,0,0.5,0.8-0.5,1.5c-6.1,4.1-31.3,21.3-41.7,21.3c-1.2,0-2.2-0.2-2.9-0.7c-6.1-3.7-0.5-21-5.7-21.5h-0.7
	c-8.8,0-29.2,20.3-34.5,25.2c-0.3,0.3-0.7,0.3-1,0.3C940.3,117.1,939.5,116.4,939.5,115.6z"/>
<path id="XMLID_80_" class="st0" d="M967.3,191.8c-3.5,0-4.7-2-4.7-4.7c0-1.7,0.5-3.5,1.2-5.2c2.5-5.7,8.8-14.2,19.4-24.3
	c13.2-12.7,28.9-23.2,45-32.6l21.1-29.6c-6.8,5.4-24.2,19.4-32.6,19.4c-1.2,0-2-0.2-2.9-0.7c-1.4-1-1.9-2.2-1.9-3.9
	c0-9.1,19.1-26.7,32.1-26.7c3.2,0,5.9,1,7.9,3.4c0.3,0.3,0.5,0.7,0.5,1c0,0.8-0.8,1.5-1.5,1.5c-0.5,0-0.8-0.2-1.2-0.5
	c-1.5-1.9-3.5-2.5-5.9-2.5c-11.3,0-29.2,17.7-29.2,23.8c0,0.7,0.3,1.4,1,1.7c0.3,0.2,0.8,0.2,1.2,0.2c8.3,0,35.5-22.8,40.4-27
	c0.3-0.2,0.7-0.3,1-0.3c0.8,0,1.5,0.7,1.5,1.5c0,0.3-0.2,0.7-0.5,1c-3.4,3.5-18.4,25-24.8,34c17.4-10,37.2-19.6,53.1-30.4
	c0.3-0.3,0.8-0.3,1.2-0.3s0.5,0,0.7,0.3l0.3,0.5c0,0.5-0.3,0.8-0.8,1.2c-18.8,12.8-39.2,23.2-58.6,34.8
	c-21.3,29.2-47.7,63.2-61.9,64.6H967.3z M1023.6,131.1c-13.7,8.3-27,17.6-38.4,28.4c-9.3,9.1-19.8,21.6-19.8,27.5v0.2
	c0.2,1.5,1,1.7,2.5,1.7C980.2,187.6,1003.5,158.5,1023.6,131.1z"/>
</svg>
